<svg version="1.1" viewBox="0.0 0.0 230.11811023622047 221.8451443569554" fill="none" stroke="none" stroke-linecap="square" stroke-miterlimit="10" xmlns:xlink="http://www.w3.org/1999/xlink" xmlns="http://www.w3.org/2000/svg"><clipPath id="p.0"><path d="m0 0l230.1181 0l0 221.84514l-230.1181 0l0 -221.84514z" clip-rule="nonzero"/></clipPath><g clip-path="url(#p.0)"><path fill="#000000" fill-opacity="0.0" d="m0 0l230.1181 0l0 221.84514l-230.1181 0z" fill-rule="evenodd"/><path fill="#ff7f11" d="m206.03018 15.0958l-189.00787 0l0 100.241776l91.411766 91.411766l97.59611 0z" fill-rule="evenodd"/><path fill="#cb650d" d="m108.434074 206.74934l-18.282349 -73.12941l-73.12942 -18.282356z" fill-rule="evenodd"/><path fill="#000000" fill-opacity="0.0" d="m108.434074 206.74934l-18.282349 -73.12941l-73.12942 -18.282356l91.411766 91.411766l97.59611 0l0 -191.65355l-189.00787 0l0 100.241776" fill-rule="evenodd"/><path fill="#000000" fill-opacity="0.0" d="m52.94865 15.095799l164.09448 59.87402l-39.87401 109.291336l-164.0945 -59.874016z" fill-rule="evenodd"/><path fill="#ffffff" d="m54.27216 47.30044l10.362965 3.781189l-3.4434624 34.420536l0.16146469 0.058914185l11.487236 -31.485561l7.3538895 2.6832504l-19.193592 52.608044l-8.484131 -3.0956497l4.086998 -42.01969l-0.14678574 -0.05355835l-14.009609 38.399178l-7.3685684 -2.688614l19.193596 -52.608036zm24.572048 69.42531q-6.091545 -2.2226562 -8.062294 -6.850395q-1.9653854 -4.6424255 0.3374176 -10.954216l10.089493 -27.65445q2.302803 -6.3117905 6.7905655 -8.582981q4.4931107 -2.2858696 10.584663 -0.06321716q6.091545 2.2226524 8.056931 6.865078q1.9707413 4.627739 -0.33206177 10.939529l-10.089485 27.65445q-2.302803 6.3117905 -6.7959213 8.597664q-4.4877625 2.2711868 -10.579308 0.048538208zm2.7419434 -7.5154343q4.2860947 1.5638885 6.1765366 -3.617653l10.475075 -28.711304q1.8904419 -5.1815414 -2.3956528 -6.74543q-4.2861023 -1.5638962 -6.176544 3.6176453l-10.475075 28.711311q-1.8904419 5.181534 2.3956604 6.74543zm38.25386 -29.46988l-8.645592 -3.154564l2.7419434 -7.5154343l25.555138 9.324432l-2.7419434 7.5154343l-8.645584 -3.154564l-16.45166 45.092606l-8.263954 -3.0153046l16.451653 -45.092606zm23.639297 0.10948944l22.546066 8.226501l-2.7419434 7.5154343l-14.2821045 -5.2111893l-5.071518 13.9006195l11.34642 4.14003l-2.7419434 7.5154343l-11.34642 -4.14003l-5.8962555 16.161118l14.2821045 5.2111816l-2.7419434 7.515442l-22.546051 -8.226501l19.193588 -52.60804zm18.708893 67.28599q-6.0181427 -2.195877 -7.8528137 -6.7407074q-1.8199921 -4.5394745 0.5095825 -10.924652l1.0978546 -3.0091095l7.808914 2.849289l-1.3174133 3.6109314q-1.8636627 5.108139 2.4224243 6.6720276q2.0990143 0.7658844 3.6350708 -0.07078552q1.5560913 -0.84599304 2.5682526 -3.6202545q1.204956 -3.3026733 0.6141968 -6.3790436q-0.5760803 -3.0710068 -3.342041 -8.07206q-3.4786682 -6.3755035 -4.1761627 -10.75489q-0.6921387 -4.394066 0.97872925 -8.973785q2.2760315 -6.2383957 6.6796875 -8.507011q4.403656 -2.268608 10.421814 -0.07273865q5.930084 2.163742 7.7207184 6.692505q1.8053131 4.534111 -0.5242615 10.919296l-0.79260254 2.172432l-7.823593 -2.8546371l0.9853821 -2.700859q0.9853821 -2.700859 0.37838745 -4.319481q-0.58695984 -1.6279373 -2.6125793 -2.3670425q-4.1393127 -1.5103302 -5.9762115 3.5244217q-1.0389252 2.8476486 -0.40275574 5.890686q0.6361847 3.0430374 3.3967896 8.058777q3.552063 6.402275 4.160095 10.798912q0.6080475 4.396652 -1.2020721 9.358017q-2.3563538 6.4585724 -6.820114 8.755157q-4.4437256 2.287262 -10.535278 0.06460571z" fill-rule="nonzero"/></g></svg>